<svg xmlns="http://www.w3.org/2000/svg" version="1.1" xmlns:xlink="http://www.w3.org/1999/xlink" xmlns:svgjs="http://svgjs.dev/svgjs" viewBox="0 0 800 800" opacity="1"><defs><linearGradient x1="50%" y1="0%" x2="50%" y2="100%" id="ccchaos-grad"><stop stop-color="#183d6e" stop-opacity="1" offset="0%"></stop><stop stop-color="#23abd0" stop-opacity="1" offset="100%"></stop></linearGradient></defs><g stroke-width="2" stroke="url(#ccchaos-grad)" fill="none" stroke-linecap="round"><path d="M393.43 7.96C399.97 9.16 406.4 10.65 412.72 12.38 419.03 14.18 425.22 16.17 431.29 18.32 437.35 20.45 443.29 22.69 449.1 24.99 454.91 27.2 460.59 29.44 466.15 31.69 474.42 34.82 490.39 40.64 498.11 43.31 505.76 45.65 520.74 49.95 528.14 51.98 535.61 53.85 550.71 57.8 558.44 60 563.75 61.5 569.15 63.17 574.65 65.01 580.33 66.9 586.14 69 592.09 71.32 598.25 73.73 604.57 76.39 611.05 79.29 617.73 82.32 624.58 85.6 631.58 89.14 638.76 92.82 646.06 96.76 653.46 100.94 660.97 105.26 668.52 109.83 676.07 114.61 683.62 119.53 691.09 124.65 698.41 129.97 705.59 135.41 712.52 141.01 719.14 146.77 725.46 152.62 731.36 158.61 736.77 164.72 741.74 170.88 746.13 177.15 749.9 183.51 753.14 189.9 755.7 196.37 757.57 202.89 758.91 209.43 759.56 216.02 759.56 222.64 759.13 229.26 758.13 235.91 756.64 242.58 754.91 249.24 752.85 255.92 750.56 262.61 748.32 269.28 746.07 275.96 743.9 282.66 742.11 289.33 740.63 296.02 739.55 302.71 739.14 309.38 739.28 316.07 740.06 322.77 741.65 329.46 743.93 336.16 746.89 342.88 750.64 349.59 755 356.32 759.89 363.07 765.35 369.81 771.13 376.58 777.11 383.37 783.26 390.16 789.31 396.98 795.1 403.82 800.58 410.66 805.49 417.53 809.66 424.42 813.12 431.3 815.57 438.13 816.97 444.89 817.44 451.65 816.81 458.34 815.1 464.96 812.51 471.56 808.95 478.09 804.53 484.52 799.48 490.94 793.79 497.25 787.59 503.46 781.15 509.64 774.48 515.69 767.74 521.62 761.14 527.5 754.71 533.24 748.56 538.82 742.89 544.34 737.68 549.69 732.98 554.86 727.22 562.41 719.65 576.38 717.71 582.75 717.57 594.17 720.36 608.8 721.31 612.86 718.72 625.21 707.01 637.16 700.93 640.94 696.35 643.75 691.33 646.73 685.9 649.9 680.18 653.41 674.11 657.16 667.75 661.18 661.17 665.59 654.37 670.3 647.38 675.32 640.27 680.74 633.03 686.46 625.7 692.49 618.33 698.87 610.92 705.5 603.49 712.37 596.08 719.47 588.68 726.73 581.33 734.06 574.02 741.48 566.77 748.87 559.58 756.14 552.46 763.3 545.41 770.21 538.44 776.77 531.54 783.01 524.7 788.75 517.94 793.93 511.24 798.59 504.6 802.56 498.01 805.78 491.48 808.35 484.98 810.1 478.53 811.01 472.11 811.23 465.72 810.62 459.35 809.18 453 807.14 446.66 804.37 440.32 800.93 434.01 797.09 427.68 792.74 421.35 787.97 415.02 783.11 408.69 778.05 402.33 772.9 395.99 767.99 389.62 763.23 383.24 758.72 376.85 754.76 370.53 751.29 364.27 748.36 358.01 746.17 351.81 744.59 345.68 743.65 339.55 743.48 333.49 743.92 327.51 744.91 321.53 746.58 315.62 748.7 309.81 751.19 303.99 754.16 298.27 757.32 292.63 760.58 287.01 764.05 281.47 767.44 276.04 770.65 267.94 775.18 252.27 781.74 244.68 783.4 237.19 783.72 222.67 780.14 215.62 776.22 210.92 772.85 206.3 768.85 201.75 764.25 197.16 759.2 192.63 753.63 188.15 747.61 183.62 741.25 179.13 734.53 174.69 727.51 170.17 720.3 165.68 712.88 161.23 705.32 156.68 697.71 152.17 690.04 147.68 682.36 143.1 674.73 138.55 667.17 134.02 659.69 129.42 652.35 124.86 645.15 120.34 638.09 115.75 631.23 111.23 624.54 106.77 618.02 102.28 611.71 97.88 605.57 93.58 599.6 89.27 593.84 85.09 588.22 81.04 582.74 77.02 577.44 73.15 572.26 69.45 567.16 64.07 559.78 54.35 545.42 50.03 538.35 46.01 531.4 39.04 517.34 36.07 510.18 33.34 502.97 28.71 488.05 26.78 480.3 24.98 472.43 21.96 456.02 20.73 447.47 19.91 441.72 19.21 435.83 18.62 429.8 17.99 423.77 17.48 417.6 17.09 411.29 16.66 404.99 16.36 398.55 16.19 391.99 15.99 385.42 15.93 378.81 16.02 372.16 16.08 365.52 16.3 358.84 16.68 352.14 17.06 345.45 17.6 338.74 18.31 332.01 19.04 325.31 19.95 318.59 21.04 311.89 22.16 305.2 23.49 298.53 25 291.88 26.56 285.26 28.33 278.68 30.29 272.13 32.31 265.62 34.53 259.17 36.94 252.78 39.4 246.44 42.05 240.18 44.87 234 47.73 227.88 50.75 221.87 53.92 215.97 57.09 210.13 60.4 204.43 63.82 198.86 67.22 193.37 70.72 188.03 74.3 182.85 77.83 177.76 81.42 172.84 85.07 168.1 90.46 161.21 101.33 148.49 106.79 142.67 112.18 137.14 123.06 127.07 128.59 122.49 134.13 118.09 145.57 109.92 151.53 106.07 157.6 102.21 170.41 94.58 177.17 90.74 184.12 86.68 198.82 78.22 206.55 73.77 211.8 70.62 217.19 67.43 222.7 64.2 228.27 60.82 233.96 57.41 239.75 54 245.6 50.47 251.55 46.96 257.59 43.49 263.68 39.96 269.85 36.5 276.09 33.16 282.36 29.82 288.71 26.64 295.1 23.64 301.53 20.72 308 18.04 314.5 15.61 321.02 13.33 327.58 11.35 334.15 9.69 340.73 8.23 347.33 7.11 353.92 6.35 360.53 5.8 367.13 5.61 373.72 5.79 380.31 6.17 386.88 6.9 393.42 7.96" stroke-dasharray="1 1" transform="rotate(0, 400, 400)" opacity="0.05"></path><path d="M389.17 18.68C395.46 19.9 401.66 21.39 407.75 23.12 413.84 24.92 419.83 26.91 425.71 29.05 431.59 31.18 437.36 33.42 443.03 35.73 448.7 37.95 454.27 40.21 459.73 42.48 467.89 45.65 483.78 51.59 491.55 54.33 499.3 56.74 514.66 61.16 522.33 63.22 530.13 65.1 546.02 68.97 554.2 71.07 559.82 72.48 565.53 74.03 571.36 75.73 577.34 77.47 583.45 79.39 589.69 81.51 596.1 83.7 602.65 86.12 609.34 88.76 616.18 91.51 623.14 94.5 630.21 97.73 637.38 101.09 644.63 104.69 651.91 108.53 659.23 112.51 666.53 116.72 673.76 121.16 680.91 125.72 687.92 130.49 694.72 135.47 701.32 140.56 707.62 145.83 713.56 151.27 719.18 156.8 724.34 162.48 729 168.3 733.22 174.19 736.87 180.19 739.91 186.3 742.47 192.45 744.39 198.7 745.67 205.01 746.49 211.36 746.7 217.76 746.34 224.21 745.64 230.68 744.46 237.19 742.88 243.73 741.15 250.27 739.18 256.84 737.06 263.42 735.06 270 733.11 276.59 731.29 283.19 729.89 289.79 728.81 296.4 728.15 303.01 728.13 309.61 728.66 316.22 729.78 322.84 731.66 329.45 734.18 336.06 737.31 342.69 741.16 349.3 745.56 355.93 750.42 362.56 755.77 369.2 761.4 375.84 767.18 382.49 773.1 389.14 778.89 395.79 784.42 402.46 789.65 409.12 794.34 415.79 798.32 422.47 801.65 429.14 804.03 435.73 805.43 442.24 805.97 448.75 805.47 455.17 803.96 461.49 801.63 467.81 798.37 474.02 794.28 480.13 789.59 486.22 784.26 492.19 778.42 498.04 772.3 503.87 765.93 509.56 759.42 515.1 753 520.61 746.68 525.96 740.57 531.14 734.85 536.28 729.51 541.25 724.61 546.02 718.4 553.01 709.57 565.91 706.9 571.8 705.34 582.45 706.62 596.33 707.4 600.32 706.01 613.32 697.05 626.77 692.04 631.17 688.21 634.41 683.94 637.83 679.25 641.46 674.28 645.41 668.94 649.61 663.28 654.06 657.39 658.87 651.23 663.95 644.85 669.32 638.3 675.03 631.58 681 624.73 687.22 617.79 693.74 610.76 700.45 603.66 707.33 596.54 714.38 589.4 721.52 582.25 728.67 575.11 735.86 567.99 742.95 560.91 749.87 553.86 756.64 546.86 763.11 539.92 769.2 533.02 774.95 526.18 780.2 519.4 784.88 512.67 789.04 506 792.54 499.38 795.3 492.8 797.46 486.27 798.84 479.79 799.42 473.35 799.38 466.94 798.55 460.56 796.96 454.21 794.84 447.88 792.04 441.58 788.62 435.29 784.86 429.01 780.63 422.75 776.03 416.49 771.36 410.25 766.5 404.01 761.58 397.77 756.88 391.53 752.32 385.3 748 379.07 744.18 372.91 740.81 366.84 737.94 360.76 735.76 354.75 734.15 348.83 733.11 342.91 732.81 337.06 733.06 331.3 733.84 325.54 735.26 319.86 737.11 314.28 739.32 308.69 742 303.19 744.88 297.79 747.89 292.39 751.13 287.07 754.32 281.86 757.38 274.08 761.8 258.98 768.55 251.65 770.52 244.39 771.31 230.25 769.07 223.35 765.97 218.73 763.2 214.18 759.81 209.69 755.85 205.14 751.44 200.64 746.51 196.19 741.1 191.68 735.36 187.19 729.22 182.74 722.74 178.22 716.04 173.72 709.09 169.24 701.95 164.68 694.7 160.14 687.34 155.63 679.92 151.04 672.49 146.47 665.07 141.93 657.68 137.33 650.38 132.77 643.16 128.26 636.05 123.7 629.07 119.2 622.23 114.78 615.53 110.33 609 105.99 602.62 101.74 596.39 97.51 590.33 93.41 584.42 89.44 578.64 85.52 573.03 81.75 567.53 78.15 562.13 74.62 556.88 71.27 551.7 68.1 546.59 63.56 539.12 55.58 524.43 52.14 517.14 48.97 509.91 43.62 495.28 41.38 487.81 39.32 480.3 35.89 464.81 34.47 456.8 33.12 448.69 30.9 431.86 30.02 423.15 29.41 417.3 28.9 411.33 28.51 405.24 28.07 399.14 27.74 392.93 27.53 386.61 27.28 380.28 27.16 373.92 27.17 367.53 27.17 361.14 27.31 354.73 27.6 348.31 27.9 341.89 28.35 335.47 28.98 329.04 29.63 322.63 30.45 316.22 31.46 309.83 32.52 303.46 33.77 297.11 35.21 290.79 36.71 284.51 38.41 278.26 40.31 272.07 42.28 265.92 44.45 259.83 46.8 253.81 49.22 247.84 51.82 241.96 54.6 236.17 57.42 230.44 60.4 224.82 63.53 219.32 66.67 213.88 69.95 208.58 73.34 203.41 76.72 198.32 80.2 193.38 83.76 188.59 89.06 181.61 99.87 168.61 105.33 162.6 110.7 156.87 121.49 146.36 126.91 141.55 132.25 136.94 143.09 128.4 148.63 124.42 154.19 120.48 165.74 112.83 171.76 109.05 177.9 105.11 190.84 97.01 197.65 92.79 204.64 88.3 219.34 78.87 227.04 73.96 232.26 70.53 237.6 67.08 243.04 63.64 248.54 60.09 254.13 56.57 259.83 53.11 265.56 49.6 271.38 46.18 277.28 42.87 283.21 39.59 289.21 36.46 295.27 33.53 301.37 30.68 307.51 28.07 313.69 25.72 319.9 23.52 326.14 21.62 332.41 20.03 338.69 18.64 344.99 17.58 351.29 16.88 357.61 16.38 363.93 16.24 370.25 16.46 376.57 16.86 382.87 17.61 389.16 18.68" stroke-dasharray="1 3" transform="rotate(2.5588235294117645, 400, 400)" opacity="0.08"></path><path d="M385.77 29.41C391.83 30.63 397.8 32.12 403.7 33.85 409.59 35.64 415.4 37.62 421.13 39.76 426.85 41.88 432.5 44.12 438.06 46.43 443.62 48.66 449.11 50.93 454.53 53.22 462.63 56.43 478.57 62.49 486.44 65.3 494.33 67.79 510.13 72.34 518.1 74.45 526.21 76.35 542.84 80.2 551.41 82.22 557.28 83.56 563.24 85.02 569.31 86.61 575.52 88.21 581.84 89.98 588.27 91.92 601.51 95.98 615.15 100.89 629.07 106.66 643.19 112.89 657.26 120.04 670.95 128.08 684.13 136.62 696.32 145.98 707.12 156.06 716.54 166.54 724 177.61 729.2 189.18 731.14 195.05 732.49 201.03 733.27 207.09 733.66 213.19 733.52 219.37 732.89 225.6 732 231.87 730.72 238.18 729.12 244.54 727.46 250.91 725.64 257.31 723.73 263.74 722.01 270.17 720.38 276.62 718.93 283.09 717.91 289.56 717.24 296.04 716.98 302.53 717.34 309.02 718.22 315.51 719.66 322 721.8 328.49 724.52 334.99 727.81 341.48 731.73 347.98 736.14 354.47 740.95 360.96 746.19 367.45 751.66 373.94 757.23 380.42 762.91 386.91 768.46 393.39 773.73 399.86 778.72 406.33 783.18 412.79 786.99 419.24 790.18 425.68 792.49 432.03 793.88 438.29 794.48 444.54 794.11 450.68 792.79 456.72 790.7 462.75 787.73 468.67 783.97 474.46 779.62 480.24 774.64 485.89 769.16 491.41 763.38 496.9 757.3 502.25 751.06 507.45 744.84 512.62 738.66 517.63 732.62 522.47 726.9 527.28 721.49 531.91 716.44 536.36 709.86 542.88 699.92 554.94 696.57 560.47 693.6 570.6 693.18 584.16 693.66 588.21 694.47 593.69 694.45 598.91 693.23 604.05 691.19 609.81 687.49 615.85 682.07 622.37 675.48 629.97 667.24 638.38 657.57 647.71 646.97 658.31 635.29 669.87 622.81 682.3 616.39 688.87 609.83 695.58 603.17 702.4 596.44 709.34 589.65 716.29 582.82 723.21 575.96 730.1 569.09 736.85 562.21 743.39 555.35 749.74 548.5 755.75 541.68 761.37 534.89 766.63 528.14 771.38 521.43 775.57 514.75 779.25 508.12 782.29 501.53 784.63 494.98 786.39 488.48 787.42 482.02 787.71 475.59 787.42 469.21 786.41 462.86 784.7 456.54 782.5 450.24 779.69 443.99 776.31 437.75 772.64 431.53 768.54 425.34 764.11 419.16 759.62 413.01 754.98 406.87 750.27 400.74 745.78 394.62 741.42 388.53 737.27 382.43 733.6 376.42 730.34 370.51 727.53 361.67 724.54 344.43 722.21 336.03 722.82 327.71 724.8 311.52 731.23 303.65 735.29 295.85 739.78 280.7 748.44 273.34 752.16 266.04 755.26 251.8 758.65 244.84 758.73 237.9 757.59 224.26 751.63 217.53 746.87 212.99 743.08 208.5 738.78 204.04 734 194.92 723.41 185.9 711.34 176.97 698.19 167.73 684.44 158.59 670.19 149.57 655.77 140.33 641.49 131.3 627.42 122.57 613.72 113.82 600.56 105.51 587.88 97.74 575.69 93.93 569.82 90.28 564.06 86.8 558.4 83.39 552.88 80.16 547.44 77.13 542.07 72.79 534.23 65.2 518.88 61.94 511.31 58.97 503.85 53.97 488.88 51.9 481.32 50 473.74 46.85 458.28 45.56 450.35 44.32 442.34 42.25 425.86 41.41 417.37 40.82 411.67 40.33 405.88 39.93 399.98 39.47 394.08 39.11 388.08 38.86 381.99 38.57 375.89 38.39 369.77 38.35 363.64 38.27 357.51 38.34 351.37 38.56 345.22 38.77 339.08 39.14 332.95 39.68 326.82 40.25 320.71 40.99 314.62 41.92 308.55 42.9 302.5 44.07 296.48 45.43 290.51 46.86 284.57 48.49 278.68 50.32 272.85 52.22 267.06 54.33 261.34 56.62 255.7 58.98 250.11 61.52 244.6 64.25 239.21 67.02 233.86 69.95 228.63 73.03 223.52 77.76 216.01 87.82 201.78 93.08 195.08 96.58 190.73 100.15 186.53 103.78 182.5 110.84 174.61 118.06 167.36 125.41 160.76 132.42 154.27 139.55 148.34 146.82 142.91 153.82 137.39 161.05 132.2 168.55 127.27 175.93 121.96 183.69 116.72 191.85 111.46 198.05 107.17 211.06 98.21 217.87 93.52 222.49 90.23 227.23 86.91 232.08 83.56 236.97 80.09 241.98 76.61 247.09 73.15 252.24 69.6 257.5 66.09 262.85 62.64 268.23 59.16 273.71 55.78 279.27 52.53 284.85 49.3 290.52 46.25 296.25 43.39 302 40.62 307.82 38.09 313.68 35.83 319.57 33.71 325.5 31.88 331.46 30.37 337.43 29.05 343.44 28.06 349.46 27.42 355.49 26.97 361.54 26.88 367.59 27.13 373.65 27.56 379.71 28.32 385.76 29.41" stroke-dasharray="3 1" transform="rotate(5.117647058823529, 400, 400)" opacity="0.11"></path><path d="M383.5 40.13C389.34 41.36 395.12 42.85 400.84 44.56 406.56 46.35 412.21 48.32 417.81 50.44 423.41 52.56 428.95 54.79 434.44 57.1 439.93 59.33 445.37 61.61 450.76 63.91 461.59 68.1 472.29 72.23 482.9 76.21 493.68 79.48 504.5 82.61 515.42 85.64 526.65 88.11 538.13 90.67 549.89 93.44 562.09 95.98 574.64 98.98 587.55 102.53 600.81 106.23 614.31 110.68 627.89 115.93 641.47 121.56 654.77 128.07 667.46 135.43 679.49 143.25 690.38 151.88 699.76 161.23 707.78 170.99 713.87 181.38 717.84 192.28 720.26 203.47 720.68 215.06 719.29 226.97 717.16 239.03 714.09 251.31 710.63 263.74 708.08 276.23 706.36 288.83 706.04 301.46 708.09 314.11 712.19 326.79 718.36 339.45 722.34 345.78 726.74 352.11 731.48 358.43 736.6 364.75 741.89 371.06 747.26 377.36 752.7 383.65 758 389.94 763.02 396.2 767.77 402.46 772.02 408.7 775.65 414.91 778.71 421.12 780.96 427.23 782.34 433.23 782.99 439.22 782.73 445.1 781.59 450.86 779.72 456.62 777.03 462.25 773.58 467.75 769.57 473.24 764.94 478.59 759.81 483.81 748.7 494.18 736.73 503.96 724.72 513.09 713.68 522.12 703.83 530.49 695.52 538.16 689.33 545.75 684.85 552.69 681.89 559.01 680.67 565.37 680.28 571.25 680.23 576.76 680.73 582.57 680.72 588.27 679.81 594.02 678.37 600.44 675.51 607.24 671.16 614.57 665.8 622.94 658.9 632.08 650.59 642.06 641.37 653.16 631.01 665.06 619.74 677.62 607.91 690.87 595.5 704.32 582.69 717.61 569.69 730.61 556.53 742.65 543.34 753.26 530.16 762.4 517.05 769.35 504.09 773.76 491.2 776.02 478.47 775.55 465.9 772.39 459.64 770.14 453.42 767.33 447.24 764.01 441.07 760.43 434.94 756.47 428.84 752.21 422.75 747.9 416.69 743.46 410.66 738.97 404.63 734.69 398.63 730.52 392.66 726.55 386.69 723.02 380.82 719.86 375.04 717.12 366.41 714.13 349.62 711.52 341.46 711.87 336.03 712.82 330.7 714.17 325.46 715.84 314.95 720.47 304.78 725.72 294.97 731.04 285.07 736.58 275.5 741.14 266.22 744.27 256.8 746.29 247.62 746.26 238.67 744.07 229.5 740.24 220.48 734.23 211.58 726.27 202.42 716.91 193.33 706.01 184.34 693.92 175.07 681.11 165.91 667.63 156.89 653.79 147.71 639.91 138.78 626.06 130.17 612.42 121.6 599.16 113.49 586.26 105.96 573.77 98.66 561.78 92.03 550.18 86.16 538.91 80.61 528.08 75.82 517.45 71.81 506.95 68.04 496.74 64.94 486.52 62.49 476.23 60.07 466.08 58.15 455.74 56.69 445.16 55.54 437.23 53.62 421.01 52.82 412.71 51.99 404.33 50.67 387.17 50.2 378.39 49.86 372.51 49.63 366.63 49.53 360.74 49.39 354.86 49.39 348.98 49.53 343.11 49.82 334.33 51.24 316.88 52.41 308.24 54.26 296.8 56.9 285.56 60.33 274.6 64.05 263.76 68.57 253.26 73.82 243.17 79.29 233.27 85.38 223.84 92 214.95 98.63 206.27 105.63 198.16 112.9 190.65 119.96 183.32 127.19 176.56 134.54 170.38 141.56 164.24 148.69 158.57 155.92 153.32 162.86 147.91 169.98 142.74 177.32 137.76 184.48 132.37 191.97 126.98 199.79 121.56 207.59 115.54 215.81 109.4 224.46 103.12 233.17 96.29 242.34 89.39 251.92 82.54 261.62 75.4 271.71 68.53 282.16 62.13 292.7 55.88 303.55 50.42 314.65 45.92 323.03 43.02 340.05 39.01 348.67 37.96 357.31 37.55 374.74 38.65 383.49 40.13" stroke-dasharray="0 1" transform="rotate(7.676470588235294, 400, 400)" opacity="0.13"></path><path d="M382.52 50.86C393.81 53.43 404.95 56.92 415.92 61.11 426.91 65.3 437.78 69.84 448.53 74.56 459.35 78.8 470.13 82.99 480.92 87.05 491.87 90.43 502.93 93.68 514.15 96.8 525.64 99.35 537.38 101.95 549.4 104.7 561.74 107.17 574.36 110.01 587.22 113.33 600.27 116.72 613.39 120.77 626.41 125.54 639.23 130.63 651.58 136.53 663.15 143.23 673.94 150.34 683.48 158.25 691.47 166.87 698.15 175.88 702.99 185.54 705.88 195.74 707.45 206.24 707.28 217.19 705.61 228.48 703.49 239.97 700.7 251.71 697.77 263.64 695.88 275.66 694.91 287.81 695.33 300.01 698 312.27 702.56 324.55 708.98 336.81 717.45 349.1 727.1 361.35 737.27 373.52 747.63 385.71 756.94 397.79 764.32 409.74 769.59 421.68 771.63 433.17 770.35 444.18 766.41 455.16 759.55 465.62 750.37 475.53 739.92 485.39 728.49 494.66 716.82 503.33 705.89 511.93 695.87 519.92 687.14 527.3 680.3 534.65 675.02 541.47 671.19 547.78 669.07 554.22 667.87 560.31 667.19 566.17 667.24 572.4 667.04 578.64 666.24 585.04 665.16 592.14 662.94 599.66 659.44 607.75 655.13 616.78 649.4 626.54 642.35 637.05 634.45 648.49 625.39 660.57 615.36 673.12 604.74 686.13 593.41 699.16 581.57 711.83 569.45 724.05 557.03 735.2 544.47 744.85 531.85 753.03 519.2 759.08 506.61 762.7 494.05 764.33 481.59 763.42 469.27 760.05 457 755.14 444.86 748.41 432.87 740.32 420.91 732.14 409.07 723.77 397.37 715.82 385.67 709.51 374.37 704.71 363.44 701.65 352.49 700.91 341.9 701.86 331.67 704.24 321.38 708.33 311.43 713.08 301.79 717.98 292.06 723.24 282.61 727.7 273.41 730.95 264.06 733.33 254.91 733.88 245.94 732.48 236.75 729.6 227.69 724.69 218.72 717.9 209.51 709.75 200.37 700.04 191.32 689.06 182.04 677.27 172.89 664.68 163.91 651.57 154.84 638.26 146.03 624.81 137.59 611.42 129.24 598.24 121.38 585.3 114.12 572.68 107.12 560.45 100.8 548.56 95.23 536.98 89.99 525.79 85.5 514.82 81.76 504.04 78.25 493.52 75.4 483.07 73.16 472.62 70.94 462.33 69.19 451.93 67.86 441.4 66.33 430.93 65.12 420.26 64.22 409.37 63.02 398.49 62.11 387.37 61.53 376.03 60.73 364.68 60.38 353.38 60.54 342.17 60.68 330.99 61.47 319.93 62.94 309.06 64.62 298.25 67.08 287.68 70.34 277.42 73.9 267.26 78.25 257.46 83.34 248.1 88.67 238.88 94.64 230.14 101.14 221.92 107.69 213.86 114.62 206.33 121.85 199.36 128.91 192.5 136.14 186.15 143.5 180.29 150.55 174.41 157.7 168.92 164.93 163.77 171.85 158.39 178.92 153.19 186.16 148.12 193.18 142.6 200.46 137.06 208.03 131.44 215.52 125.26 223.37 118.96 231.59 112.54 239.83 105.62 248.49 98.67 257.53 91.82 266.65 84.73 276.15 77.96 286.01 71.69 295.93 65.61 306.18 60.33 316.7 56.01 327.27 52.3 338.07 49.77 349.06 48.52 360.06 48.03 371.23 48.82 382.51 50.86" stroke-dasharray="3 1" transform="rotate(10.235294117647058, 400, 400)" opacity="0.16"></path><path d="M382.93 61.58C393.86 64.15 404.73 67.6 415.52 71.75 426.32 75.92 437.09 80.44 447.82 85.15 458.63 89.44 469.48 93.69 480.39 97.83 491.47 101.32 502.68 104.67 514.07 107.9 525.7 110.55 537.55 113.22 549.62 115.98 561.91 118.41 574.39 121.15 586.96 124.29 599.59 127.41 612.12 131.13 624.36 135.48 636.26 140.07 647.53 145.41 657.89 151.49 667.4 157.93 675.61 165.13 682.28 173.02 687.73 181.29 691.46 190.21 693.42 199.68 694.31 209.45 693.73 219.7 691.94 230.32 689.95 241.16 687.53 252.29 685.18 263.64 683.97 275.11 683.73 286.73 684.86 298.44 688.09 310.21 693.04 322.03 699.64 333.84 708.06 345.68 717.47 357.48 727.24 369.19 737.13 380.92 745.97 392.55 752.98 404.01 758.05 415.47 760.12 426.47 759.09 436.99 755.59 447.49 749.33 457.47 740.83 466.93 731.04 476.34 720.18 485.21 708.92 493.52 698.16 501.8 688.08 509.55 679.05 516.77 671.67 524.03 665.68 530.84 661.04 537.28 658.05 543.91 656.02 550.31 654.64 556.6 654.13 563.31 653.59 570.12 652.7 577.18 651.77 584.92 649.96 593.11 647.09 601.86 643.62 611.46 638.89 621.7 632.95 632.58 626.26 644.21 618.43 656.31 609.61 668.71 600.21 681.36 590.02 693.84 579.21 705.81 568.08 717.21 556.54 727.44 544.74 736.14 532.82 743.39 520.77 748.58 508.68 751.47 496.59 752.52 484.53 751.23 472.55 747.68 460.6 742.77 448.75 736.22 437.03 728.45 425.33 720.65 413.74 712.69 402.29 705.1 390.84 699.02 379.76 694.32 369.06 691.2 358.33 690.22 347.95 690.81 337.9 692.74 327.79 696.3 317.97 700.54 308.45 705.01 298.82 709.95 289.43 714.26 280.27 717.56 270.94 720.19 261.77 721.22 252.76 720.5 243.53 718.48 234.41 714.58 225.38 708.88 216.12 701.91 206.94 693.38 197.87 683.54 188.62 672.84 179.53 661.22 170.64 648.96 161.71 636.37 153.09 623.49 144.86 610.5 136.78 597.6 129.21 584.81 122.25 572.23 115.58 559.93 109.6 547.89 104.36 536.14 99.44 524.7 95.26 513.49 91.8 502.49 88.56 491.73 85.94 481.09 83.91 470.51 81.87 460.08 80.27 449.64 79.07 439.13 77.64 428.7 76.5 418.15 75.63 407.47 74.43 396.81 73.5 385.99 72.87 375.03 71.99 364.06 71.54 353.21 71.56 342.52 71.57 331.84 72.2 321.35 73.5 311.09 75.01 300.87 77.3 290.93 80.36 281.33 83.74 271.82 87.91 262.68 92.81 253.97 97.98 245.38 103.79 237.25 110.15 229.62 116.59 222.09 123.45 215.06 130.62 208.53 137.65 202.04 144.88 196 152.25 190.39 159.33 184.69 166.51 179.29 173.77 174.17 180.72 168.76 187.77 163.49 194.96 158.27 201.91 152.6 209.06 146.89 216.45 141.08 223.71 134.75 231.28 128.29 239.17 121.76 247.02 114.77 255.25 107.81 263.85 100.97 272.46 93.97 281.45 87.32 290.79 81.2 300.16 75.31 309.86 70.23 319.87 66.1 329.89 62.58 340.18 60.21 350.71 59.08 361.24 58.69 371.99 59.53 382.92 61.58" stroke-dasharray="0 1" transform="rotate(12.794117647058824, 400, 400)" opacity="0.19"></path><path d="M384.69 72.31C395.3 74.86 405.92 78.28 416.53 82.38 427.16 86.51 437.82 91 448.51 95.7 459.28 100.01 470.14 104.32 481.11 108.53 492.21 112.13 503.47 115.6 514.89 118.94 526.49 121.7 538.28 124.45 550.2 127.25 562.25 129.69 574.37 132.37 586.45 135.37 598.45 138.3 610.21 141.73 621.52 145.72 632.39 149.88 642.49 154.71 651.6 160.22 659.84 166.03 666.77 172.56 672.21 179.76 676.56 187.29 679.34 195.46 680.56 204.19 680.94 213.21 680.11 222.73 678.34 232.65 676.58 242.78 674.63 253.25 672.9 263.96 672.36 274.81 672.82 285.85 674.6 296.99 678.33 308.22 683.62 319.51 690.36 330.8 698.69 342.14 707.82 353.45 717.2 364.68 726.61 375.93 735 387.07 741.65 398.05 746.51 409.03 748.59 419.57 747.8 429.64 744.72 439.69 739.03 449.26 731.19 458.34 722.06 467.39 711.79 475.95 700.99 484.01 690.49 492.07 680.43 499.68 671.21 506.86 663.4 514.13 656.8 521.06 651.43 527.72 647.61 534.61 644.77 541.39 642.64 548.16 641.49 555.37 640.48 562.75 639.34 570.43 638.37 578.76 636.75 587.53 634.3 596.82 631.45 606.86 627.52 617.45 622.51 628.54 616.88 640.21 610.18 652.19 602.49 664.28 594.26 676.46 585.21 688.32 575.48 699.52 565.39 710.05 554.8 719.36 543.86 727.11 532.74 733.47 521.4 737.85 509.93 740.05 498.42 740.58 486.86 738.96 475.32 735.27 463.79 730.4 452.3 724.05 440.91 716.61 429.52 709.18 418.22 701.61 407.03 694.37 395.84 688.54 384.99 683.94 374.49 680.77 363.96 679.58 353.75 679.83 343.84 681.32 333.87 684.38 324.16 688.12 314.7 692.15 305.14 696.73 295.78 700.83 286.6 704.12 277.27 706.91 268.08 708.31 259.01 708.16 249.74 706.9 240.57 703.91 231.49 699.24 222.22 693.38 213.05 685.99 204 677.29 194.83 667.71 185.84 657.14 177.1 645.82 168.37 634.07 159.98 621.88 152.03 609.47 144.25 597.01 137.02 584.54 130.4 572.16 124.09 559.96 118.47 547.95 113.57 536.16 108.99 524.62 105.11 513.29 101.94 502.16 98.96 491.25 96.57 480.47 94.73 469.82 92.87 459.3 91.41 448.82 90.31 438.36 88.97 427.97 87.88 417.53 87.03 407.05 85.85 396.59 84.89 386.05 84.2 375.45 83.26 364.84 82.72 354.42 82.62 344.21 82.5 334 82.98 324.03 84.11 314.34 85.45 304.68 87.54 295.33 90.4 286.33 93.58 277.4 97.55 268.85 102.24 260.73 107.22 252.69 112.85 245.09 119.05 237.95 125.36 230.87 132.11 224.24 139.19 218.06 146.18 211.86 153.39 206.04 160.76 200.58 167.88 194.97 175.09 189.61 182.38 184.44 189.38 178.96 196.46 173.56 203.64 168.19 210.57 162.35 217.66 156.46 224.94 150.47 232.05 143.99 239.42 137.41 247.07 130.78 254.63 123.76 262.53 116.8 270.75 110.02 278.96 103.13 287.51 96.63 296.41 90.68 305.3 85 314.54 80.12 324.08 76.2 333.63 72.86 343.47 70.66 353.58 69.66 363.69 69.36 374.07 70.25 384.68 72.31" stroke-dasharray="0 2" transform="rotate(15.352941176470589, 400, 400)" opacity="0.22"></path><path d="M387.66 83.03C397.98 85.57 408.36 88.94 418.78 92.98 429.24 97.07 439.77 101.53 450.37 106.2 461.05 110.53 471.84 114.87 482.76 119.15 493.78 122.85 504.95 126.43 516.26 129.88 527.67 132.77 539.21 135.62 550.8 138.49 562.42 140.97 573.99 143.63 585.39 146.55 596.61 149.33 607.45 152.54 617.72 156.23 627.47 160.01 636.39 164.4 644.24 169.4 651.27 174.64 657.01 180.55 661.35 187.08 664.74 193.91 666.74 201.35 667.4 209.35 667.44 217.63 666.51 226.4 664.88 235.59 663.46 245 662.02 254.76 660.93 264.79 661.06 274.98 662.19 285.37 664.56 295.91 668.73 306.53 674.28 317.25 681.1 328 689.31 338.79 698.15 349.58 707.13 360.3 716.07 371.04 724.01 381.69 730.31 392.2 734.97 402.71 737.05 412.8 736.47 422.47 733.79 432.12 728.66 441.34 721.45 450.11 712.98 458.87 703.32 467.2 693.01 475.11 682.83 483.05 672.9 490.62 663.59 497.86 655.45 505.21 648.35 512.33 642.34 519.28 637.77 526.49 634.14 533.68 631.27 540.93 629.41 548.63 627.85 556.55 626.33 564.78 625.14 573.6 623.52 582.86 621.29 592.56 618.84 602.9 615.51 613.68 611.24 624.82 606.49 636.39 600.75 648.11 594.09 659.78 586.95 671.38 578.97 682.52 570.29 692.9 561.25 702.54 551.65 710.93 541.6 717.77 531.36 723.27 520.81 726.89 510.05 728.47 499.21 728.54 488.24 726.63 477.22 722.85 466.18 718.04 455.13 711.9 444.11 704.78 433.1 697.73 422.12 690.54 411.21 683.64 400.3 678.05 389.69 673.56 379.38 670.36 369.05 668.99 359 668.91 349.2 670 339.35 672.58 329.73 675.82 320.31 679.41 310.8 683.6 301.45 687.46 292.26 690.66 282.92 693.52 273.7 695.2 264.59 695.52 255.32 694.91 246.13 692.72 237.04 688.98 227.81 684.16 218.69 677.88 209.72 670.29 200.69 661.84 191.87 652.34 183.33 642.02 174.86 631.2 166.76 619.84 159.13 608.13 151.71 596.26 144.84 584.26 138.6 572.26 132.68 560.33 127.42 548.49 122.88 536.82 118.65 525.32 115.08 513.99 112.19 502.85 109.47 491.89 107.29 481.07 105.64 470.4 103.93 459.85 102.59 449.38 101.58 438.99 100.31 428.66 99.27 418.35 98.43 408.07 97.26 397.81 96.28 387.53 95.54 377.26 94.54 366.99 93.91 356.96 93.7 347.2 93.46 337.44 93.8 327.95 94.77 318.77 95.93 309.62 97.83 300.79 100.48 292.33 103.45 283.91 107.19 275.88 111.66 268.27 116.43 260.69 121.85 253.53 127.85 246.8 134 240.07 140.61 233.75 147.57 227.82 154.49 221.81 161.66 216.13 169 210.74 176.13 205.15 183.38 199.76 190.71 194.5 197.76 188.91 204.89 183.36 212.1 177.8 219.05 171.8 226.13 165.73 233.36 159.58 240.39 152.97 247.64 146.29 255.12 139.6 262.48 132.58 270.13 125.67 278.07 118.97 285.96 112.21 294.18 105.88 302.71 100.13 311.22 94.67 320.06 90.01 329.21 86.3 338.35 83.16 347.8 81.12 357.55 80.24 367.29 80.03 377.32 80.97 387.65 83.03" stroke-dasharray="3 3" transform="rotate(17.91176470588235, 400, 400)" opacity="0.25"></path><path d="M391.6 93.76C401.64 96.27 411.79 99.6 422.01 103.57 432.26 107.6 442.62 112.01 453.08 116.65 463.59 120.99 474.23 125.36 484.98 129.68 495.8 133.48 506.75 137.17 517.77 140.73 528.85 143.75 539.96 146.72 551.04 149.67 562.07 152.22 572.93 154.9 583.51 157.78 593.83 160.47 603.65 163.52 612.82 166.97 621.44 170.45 629.17 174.46 635.84 179.02 641.72 183.75 646.4 189.09 649.79 195.01 652.39 201.18 653.78 207.94 654.04 215.23 653.9 222.77 653.01 230.81 651.64 239.27 650.63 247.94 649.74 256.98 649.29 266.32 650.07 275.81 651.82 285.54 654.72 295.43 659.26 305.42 665.03 315.53 671.88 325.7 679.93 335.92 688.46 346.16 697.03 356.36 705.51 366.59 713.01 376.75 718.98 386.79 723.43 396.84 725.51 406.53 725.13 415.83 722.81 425.12 718.2 434.04 711.61 442.56 703.79 451.1 694.75 459.28 684.97 467.11 675.17 475 665.44 482.6 656.14 489.96 647.79 497.46 640.3 504.81 633.76 512.09 628.51 519.63 624.15 527.23 620.55 534.94 617.97 543.07 615.79 551.46 613.78 560.15 612.24 569.37 610.46 578.97 608.26 588.96 606.01 599.44 603.06 610.26 599.33 621.31 595.27 632.63 590.33 643.96 584.55 655.1 578.36 666.04 571.37 676.42 563.67 685.94 555.63 694.68 547 702.16 537.87 708.12 528.53 712.81 518.8 715.72 508.79 716.74 498.68 716.39 488.37 714.24 477.93 710.4 467.46 705.68 456.9 699.76 446.31 692.97 435.72 686.28 425.11 679.47 414.51 672.92 403.9 667.56 393.55 663.19 383.45 659.97 373.33 658.43 363.43 658.07 353.75 658.78 344.02 660.89 334.47 663.65 325.1 666.79 315.64 670.58 306.32 674.15 297.12 677.2 287.81 680.07 278.59 681.93 269.47 682.62 260.23 682.54 251.08 681.05 242.03 678.15 232.9 674.28 223.89 669.02 215.08 662.51 206.25 655.16 197.66 646.75 189.39 637.46 181.24 627.63 173.49 617.18 166.22 606.28 159.19 595.13 152.73 583.75 146.89 572.26 141.37 560.75 136.5 549.25 132.32 537.83 128.43 526.52 125.18 515.33 122.55 504.31 120.07 493.41 118.1 482.65 116.61 472.04 115.05 461.54 113.82 451.14 112.88 440.86 111.67 430.63 110.66 420.48 109.84 410.4 108.66 400.34 107.66 390.32 106.87 380.37 105.82 370.42 105.12 360.76 104.81 351.4 104.46 342.04 104.67 332.99 105.47 324.28 106.46 315.57 108.17 307.2 110.6 299.21 113.35 291.23 116.85 283.63 121.07 276.43 125.6 269.24 130.8 262.42 136.57 256 142.53 249.55 148.96 243.44 155.77 237.67 162.59 231.78 169.68 226.16 176.96 220.77 184.1 215.15 191.35 209.67 198.7 204.29 205.81 198.56 212.99 192.84 220.25 187.1 227.25 180.93 234.35 174.7 241.57 168.4 248.59 161.69 255.78 154.95 263.16 148.23 270.4 141.24 277.89 134.4 285.63 127.82 293.29 121.23 301.24 115.1 309.49 109.56 317.69 104.33 326.21 99.9 335.04 96.4 343.84 93.47 352.96 91.59 362.39 90.84 371.8 90.72 381.54 91.7 391.59 93.76" stroke-dasharray="3 3" transform="rotate(20.470588235294116, 400, 400)" opacity="0.27"></path><path d="M396.2 104.48C405.98 106.97 415.88 110.24 425.87 114.13 435.89 118.1 446.02 122.46 456.25 127.05 466.52 131.38 476.9 135.77 487.37 140.13 497.88 144.01 508.45 147.8 519.05 151.47 529.64 154.63 540.19 157.72 550.61 160.77 560.91 163.41 570.95 166.15 580.6 169.02 589.94 171.67 598.71 174.61 606.76 177.89 614.26 181.14 620.86 184.84 626.43 189.02 631.3 193.31 635.05 198.15 637.65 203.53 639.63 209.1 640.58 215.22 640.61 221.85 640.42 228.69 639.69 236.02 638.67 243.78 638.12 251.72 637.81 260.05 638 268.69 639.39 277.47 641.7 286.52 645.07 295.76 649.93 305.09 655.85 314.58 662.68 324.16 670.53 333.79 678.75 343.47 686.9 353.15 694.93 362.85 702.01 372.53 707.64 382.14 711.9 391.75 713.96 401.05 713.75 410.02 711.78 419 707.66 427.65 701.67 436 694.49 444.36 686.07 452.44 676.85 460.25 667.48 468.13 658.03 475.82 648.83 483.33 640.38 491.01 632.62 498.62 625.65 506.21 619.82 514.08 614.8 522.04 610.52 530.16 607.23 538.66 604.4 547.42 601.84 556.46 599.84 565.96 597.76 575.77 595.43 585.88 593.2 596.37 590.44 607.07 587.06 617.89 583.48 628.84 579.16 639.67 574.08 650.18 568.69 660.39 562.56 669.95 555.73 678.6 548.62 686.44 540.89 693.03 532.64 698.15 524.18 702.08 515.29 704.34 506.05 704.85 496.7 704.15 487.07 701.81 477.25 697.95 467.39 693.33 457.37 687.65 447.25 681.19 437.12 674.86 426.92 668.41 416.66 662.19 406.4 657.07 396.32 652.82 386.44 649.6 376.55 647.91 366.83 647.29 357.28 647.64 347.69 649.31 338.24 651.62 328.93 654.31 319.56 657.68 310.29 660.93 301.12 663.79 291.87 666.59 282.71 668.55 273.64 669.51 264.49 669.86 255.43 668.96 246.5 666.78 237.53 663.76 228.72 659.46 220.13 653.95 211.57 647.66 203.29 640.31 195.35 632.07 187.57 623.26 180.21 613.77 173.36 603.76 166.75 593.44 160.72 582.78 155.31 571.93 150.2 560.98 145.72 549.95 141.91 538.94 138.35 527.95 135.4 517.04 133.04 506.25 130.78 495.53 129 484.94 127.66 474.49 126.22 464.11 125.08 453.86 124.2 443.74 123.05 433.67 122.06 423.69 121.23 413.84 120.06 404 119.04 394.25 118.21 384.6 117.11 374.96 116.34 365.63 115.94 356.65 115.49 347.65 115.57 338.99 116.22 330.67 117.05 322.35 118.56 314.38 120.77 306.78 123.29 299.17 126.54 291.92 130.5 285.05 134.78 278.14 139.71 271.6 145.23 265.39 150.96 259.12 157.18 253.15 163.81 247.46 170.48 241.62 177.45 235.99 184.65 230.54 191.74 224.85 198.98 219.25 206.33 213.71 213.47 207.83 220.7 201.94 227.99 196.02 235.06 189.71 242.21 183.34 249.45 176.92 256.49 170.15 263.67 163.38 271.01 156.67 278.19 149.75 285.58 143.02 293.18 136.59 300.69 130.2 308.46 124.28 316.49 118.97 324.46 113.99 332.73 109.81 341.3 106.52 349.82 103.79 358.67 102.08 367.82 101.44 376.95 101.41 386.41 102.43 396.19 104.48" stroke-dasharray="1 1" transform="rotate(23.029411764705884, 400, 400)" opacity="0.30"></path><path d="M401.11 115.21C410.62 117.66 420.25 120.86 429.97 124.68 439.71 128.58 449.55 132.86 459.48 137.4 469.42 141.71 479.45 146.1 489.52 150.49 499.6 154.44 509.69 158.31 519.72 162.09 529.71 165.38 539.57 168.59 549.22 171.77 558.7 174.52 567.83 177.33 576.5 180.25 584.83 182.9 592.54 185.78 599.5 188.95 608.73 193.75 621.59 205.49 625.06 212.6 626.58 217.64 627.26 223.18 627.2 229.21 627.1 235.41 626.63 242.08 626.02 249.17 625.98 256.41 626.24 264.04 627.05 272.01 629.01 280.09 631.83 288.46 635.61 297.06 640.71 305.74 646.73 314.6 653.5 323.59 661.13 332.63 669.01 341.75 676.75 350.92 684.33 360.11 690.99 369.31 696.31 378.5 700.36 387.69 702.4 396.63 702.36 405.31 700.7 414 697.05 422.44 691.63 430.63 685.06 438.86 677.27 446.87 668.63 454.7 659.74 462.61 650.63 470.39 641.62 478.08 633.18 485.93 625.24 493.78 617.96 501.66 611.65 509.81 606.07 518.08 601.17 526.52 597.21 535.3 593.73 544.31 590.59 553.58 588.06 563.21 585.58 573.09 582.99 583.18 580.61 593.53 577.87 603.99 574.66 614.44 571.37 624.9 567.47 635.13 562.93 644.94 558.17 654.37 552.74 663.08 546.66 670.85 540.35 677.82 533.44 683.55 526 687.87 518.37 691.1 510.27 692.77 501.78 692.83 493.18 691.83 484.26 689.34 475.07 685.48 465.84 681 456.39 675.56 446.77 669.43 437.14 663.45 427.37 657.36 417.49 651.47 407.6 646.57 397.84 642.45 388.22 639.25 378.58 637.43 369.07 636.57 359.69 636.59 350.27 637.85 340.96 639.71 331.76 641.97 322.51 644.92 313.34 647.82 304.27 650.44 295.14 653.11 286.09 655.09 277.14 656.23 268.15 656.9 259.27 656.48 250.54 654.92 241.81 652.65 233.26 649.2 224.96 644.62 216.74 639.32 208.83 633 201.28 625.78 193.92 618.01 187 609.5 180.59 600.42 174.45 591 168.86 581.16 163.88 571.04 159.19 560.76 155.11 550.33 151.65 539.84 148.42 529.32 145.76 518.8 143.64 508.36 141.59 497.95 139.99 487.62 138.77 477.42 137.44 467.27 136.37 457.24 135.54 447.34 134.43 437.48 133.46 427.74 132.63 418.12 131.45 408.53 130.41 399.05 129.54 389.71 128.41 380.36 127.58 371.36 127.1 362.7 126.56 354.03 126.52 345.71 127.03 337.74 127.69 329.75 129.01 322.11 131 314.82 133.28 307.51 136.28 300.54 139.96 293.91 143.96 287.23 148.61 280.86 153.86 274.8 159.33 268.63 165.3 262.72 171.71 257.05 178.19 251.2 185 245.52 192.07 239.97 199.08 234.17 206.26 228.43 213.58 222.72 220.73 216.69 227.97 210.64 235.29 204.56 242.41 198.12 249.61 191.64 256.88 185.15 263.97 178.35 271.16 171.59 278.49 164.93 285.66 158.13 293 151.54 300.52 145.28 307.94 139.11 315.58 133.44 323.46 128.38 331.27 123.66 339.34 119.72 347.69 116.66 356 114.13 364.6 112.58 373.5 112.06 382.38 112.12 391.58 113.17 401.1 115.21" stroke-dasharray="2 1" transform="rotate(25.58823529411765, 400, 400)" opacity="0.33"></path><path d="M405.92 125.94C415.16 128.35 424.5 131.48 433.9 135.21 443.32 139.02 452.81 143.23 462.35 147.7 471.89 151.97 481.48 156.35 491.05 160.75 500.6 164.75 510.1 168.71 519.47 172.58 528.76 175.99 537.86 179.33 546.66 182.62 555.26 185.51 563.45 188.42 571.13 191.4 578.47 194.09 585.16 196.97 591.11 200.06 598.91 204.67 609.45 215.63 612.17 222.16 613.67 229.26 613.96 245.93 613.75 255.43 614.22 262.03 615.06 269.01 616.46 276.33 618.93 283.75 622.2 291.47 626.31 299.44 631.6 307.48 637.66 315.74 644.32 324.15 651.71 332.61 659.24 341.19 666.57 349.86 673.71 358.55 679.97 367.3 684.97 376.08 688.83 384.87 690.84 393.48 690.93 401.9 689.57 410.32 686.35 418.57 681.48 426.64 675.52 434.75 668.35 442.72 660.3 450.57 651.92 458.51 643.21 466.39 634.46 474.24 626.12 482.24 618.14 490.28 610.65 498.4 603.98 506.75 597.94 515.24 592.5 523.9 587.92 532.85 583.83 542 580.11 551.35 577.02 560.98 574.07 570.78 571.12 580.71 568.47 590.79 565.6 600.87 562.4 610.84 559.23 620.71 555.57 630.27 551.39 639.32 547.09 647.94 542.19 655.79 536.72 662.69 531.08 668.8 524.87 673.72 518.13 677.3 511.24 679.87 503.88 681.02 496.1 680.69 488.22 679.43 479.97 676.83 471.41 673.02 462.8 668.68 453.93 663.49 444.83 657.69 435.72 652.06 426.41 646.32 416.94 640.74 407.46 636.08 398.04 632.09 388.71 628.91 379.38 626.98 370.11 625.91 360.94 625.64 351.75 626.51 342.63 627.95 333.59 629.78 324.52 632.3 315.52 634.84 306.61 637.19 297.67 639.68 288.81 641.61 280.06 642.84 271.31 643.73 262.68 643.69 254.22 642.65 245.81 641.01 237.61 638.31 229.67 634.56 221.86 630.18 214.37 624.82 207.27 618.58 200.37 611.81 193.93 604.3 187.99 596.17 182.32 587.67 177.19 578.71 172.65 569.4 168.38 559.89 164.68 550.15 161.57 540.28 158.65 530.33 156.25 520.33 154.36 510.34 152.51 500.34 151.05 490.4 149.94 480.54 148.7 470.7 147.7 460.97 146.9 451.35 145.81 441.77 144.85 432.29 144.02 422.96 142.84 413.64 141.78 404.44 140.88 395.39 139.72 386.34 138.83 377.64 138.28 369.29 137.67 360.92 137.52 352.9 137.89 345.21 138.39 337.51 139.52 330.13 141.29 323.09 143.34 316.01 146.07 309.25 149.47 302.79 153.18 296.26 157.53 290 162.47 284.01 167.65 277.9 173.35 271.99 179.49 266.28 185.75 260.38 192.36 254.61 199.24 248.94 206.12 243.02 213.2 237.13 220.43 231.27 227.55 225.09 234.78 218.9 242.09 212.69 249.24 206.16 256.47 199.62 263.77 193.08 270.89 186.31 278.12 179.6 285.45 173.03 292.63 166.38 299.95 159.97 307.43 153.92 314.79 148 322.35 142.58 330.11 137.78 337.8 133.33 345.72 129.65 353.89 126.81 362.02 124.49 370.41 123.1 379.08 122.7 387.73 122.83 396.67 123.91 405.91 125.93" stroke-dasharray="1 4" transform="rotate(28.147058823529413, 400, 400)" opacity="0.36"></path><path d="M410.27 136.66C419.22 139.03 428.22 142.09 437.26 145.72 446.31 149.44 455.39 153.56 464.48 157.95 473.56 162.17 482.62 166.52 491.61 170.91 500.56 174.96 509.39 178.97 518.04 182.92 526.58 186.45 534.85 189.92 542.77 193.33 550.48 196.34 557.75 199.37 564.47 202.44 573.74 206.66 588.22 215.69 593.23 220.76 596.9 226.08 600.48 238.66 600.91 246 601.28 251.11 601.54 256.64 601.88 262.56 602.88 268.57 604.27 274.95 606.2 281.67 609.13 288.48 612.78 295.59 617.17 302.97 622.58 310.41 628.63 318.08 635.15 325.94 642.27 333.84 649.43 341.9 656.35 350.1 663.07 358.3 668.94 366.62 673.64 375.03 677.3 383.43 679.27 391.73 679.49 399.9 678.39 408.07 675.58 416.14 671.23 424.1 665.85 432.1 659.29 440.03 651.84 447.89 644 455.85 635.74 463.79 627.33 471.75 619.18 479.86 611.24 488.04 603.66 496.31 596.75 504.78 590.35 513.39 584.47 522.16 579.36 531.15 574.7 540.3 570.43 549.6 566.78 559.09 563.33 568.69 559.96 578.31 556.96 587.99 553.84 597.59 550.51 606.98 547.31 616.19 543.74 625.01 539.76 633.26 535.74 641.05 531.22 648.05 526.2 654.09 521.07 659.38 515.43 663.53 509.29 666.43 503.04 668.42 496.32 669.09 489.18 668.43 481.95 666.96 474.34 664.3 466.38 660.55 458.38 656.37 450.08 651.45 441.51 645.97 432.92 640.68 424.09 635.28 415.05 630.02 406.01 625.58 396.97 621.73 387.97 618.58 378.98 616.57 370.01 615.31 361.1 614.77 352.19 615.28 343.32 616.32 334.51 617.74 325.69 619.84 316.94 622.01 308.26 624.06 299.58 626.32 291 628.14 282.53 629.38 274.09 630.41 265.8 630.64 257.7 630 249.67 628.9 241.88 626.83 234.38 623.82 227.02 620.26 220.01 615.78 213.4 610.46 207 604.65 201.05 598.09 195.6 590.91 190.41 583.36 185.75 575.3 181.64 566.84 177.77 558.15 174.45 549.18 171.66 540.01 169.04 530.73 166.89 521.33 165.19 511.88 163.51 502.4 162.18 492.92 161.17 483.48 160 474.05 159.05 464.69 158.27 455.42 157.2 446.17 156.25 437.02 155.4 428 154.22 418.99 153.14 410.1 152.22 401.35 151.03 392.59 150.11 384.18 149.49 376.11 148.81 368.02 148.56 360.25 148.8 352.82 149.16 345.35 150.11 338.19 151.66 331.34 153.47 324.44 155.94 317.82 159.05 311.47 162.46 305.04 166.49 298.84 171.11 292.87 175.97 286.76 181.36 280.83 187.2 275.04 193.18 269.07 199.54 263.19 206.2 257.39 212.9 251.34 219.82 245.32 226.92 239.31 233.95 233.02 241.12 226.72 248.38 220.41 255.52 213.84 262.74 207.27 270.04 200.74 277.19 194.03 284.43 187.43 291.76 180.99 298.95 174.52 306.27 168.33 313.7 162.52 321.04 156.86 328.54 151.72 336.2 147.2 343.8 143.02 351.59 139.59 359.6 136.99 367.56 134.87 375.77 133.64 384.21 133.34 392.63 133.55 401.32 134.66 410.26 136.66" stroke-dasharray="0 3" transform="rotate(30.705882352941178, 400, 400)" opacity="0.39"></path><path d="M413.81 147.39C422.43 149.7 431.08 152.68 439.71 156.21 448.35 159.84 456.98 163.85 465.55 168.15 474.11 172.31 482.59 176.61 490.95 180.98 499.25 185.05 507.37 189.1 515.26 193.12 523.02 196.75 530.46 200.32 537.52 203.85 544.37 207 550.74 210.15 556.57 213.32 564.57 217.67 576.84 226.73 581.01 231.66 584.14 236.73 587.47 248.49 588.22 255.28 589.27 262.5 592.91 278.89 596.28 288 599.61 294.24 603.57 300.8 608.17 307.63 613.64 314.51 619.63 321.64 625.98 328.99 632.8 336.37 639.6 343.94 646.11 351.69 652.41 359.44 657.9 367.35 662.3 375.39 665.77 383.44 667.7 391.43 668.03 399.36 667.17 407.3 664.74 415.19 660.87 423.03 656.05 430.91 650.09 438.77 643.24 446.63 635.96 454.56 628.19 462.53 620.17 470.54 612.3 478.68 604.5 486.91 596.93 495.24 589.9 503.73 583.25 512.35 577.04 521.1 571.49 530.01 566.35 539.04 561.59 548.15 557.4 557.38 553.45 566.63 549.64 575.83 546.23 585.01 542.79 594.03 539.24 602.75 535.88 611.25 532.26 619.29 528.34 626.72 524.45 633.68 520.16 639.83 515.45 645.06 510.68 649.57 505.47 653.01 499.81 655.28 494.07 656.75 487.9 657.01 481.31 656.08 474.66 654.45 467.62 651.75 460.22 648.1 452.79 644.09 445.03 639.43 436.97 634.28 428.9 629.32 420.56 624.26 411.97 619.29 403.38 615.08 394.76 611.37 386.14 608.28 377.52 606.2 368.9 604.78 360.32 603.99 351.73 604.17 343.18 604.84 334.67 605.87 326.17 607.56 317.73 609.35 309.37 611.08 301.04 613.07 292.8 614.73 284.7 615.92 276.65 617.01 268.77 617.41 261.09 617.08 253.52 616.38 246.2 614.85 239.19 612.46 232.34 609.62 225.84 605.93 219.74 601.45 213.86 596.53 208.42 590.89 203.48 584.61 198.76 577.99 194.55 570.83 190.87 563.24 187.39 555.41 184.42 547.24 181.94 538.82 179.58 530.27 177.66 521.55 176.14 512.72 174.61 503.83 173.39 494.89 172.44 485.95 171.34 477 170.41 468.08 169.64 459.21 168.59 450.36 167.63 441.58 166.77 432.9 165.59 424.23 164.5 415.66 163.55 407.22 162.35 398.78 161.39 390.65 160.73 382.83 159.98 375 159.65 367.47 159.77 360.24 159.99 352.99 160.76 346 162.11 339.3 163.69 332.53 165.89 326.01 168.71 319.73 171.81 313.36 175.51 307.18 179.79 301.19 184.32 295.06 189.36 289.07 194.87 283.2 200.54 277.14 206.61 271.16 212.99 265.23 219.45 259.08 226.16 252.94 233.07 246.82 239.96 240.45 247 234.08 254.17 227.72 261.24 221.15 268.41 214.61 275.67 208.14 282.8 201.54 290.03 195.08 297.33 188.82 304.52 182.57 311.81 176.63 319.2 171.08 326.5 165.71 333.93 160.87 341.51 156.63 349.01 152.74 356.69 149.57 364.54 147.19 372.35 145.27 380.36 144.2 388.57 144 396.76 144.28 405.17 145.41 413.8 147.38" stroke-dasharray="1 0" transform="rotate(33.26470588235294, 400, 400)" opacity="0.41"></path><path d="M416.25 158.11C424.53 160.37 432.78 163.26 440.98 166.68 449.17 170.2 457.3 174.11 465.32 178.29 473.32 182.38 481.2 186.62 488.89 190.95 496.52 195.01 503.92 199.1 511.04 203.16 518.03 206.87 524.68 210.54 530.91 214.18 539.74 219.09 554.46 228.52 560.18 233.21 564.94 237.71 571.31 247.51 573.17 252.97 574.77 258.67 577.59 271.69 579.49 279.06 581.47 284.12 583.84 289.52 586.68 295.23 590.35 300.98 594.55 307.04 599.29 313.38 604.77 319.75 610.65 326.39 616.79 333.27 623.3 340.17 629.73 347.29 635.84 354.61 641.73 361.93 646.85 369.46 650.97 377.16 654.25 384.86 656.12 392.56 656.54 400.25 655.9 407.95 653.82 415.65 650.41 423.35 646.12 431.09 640.75 438.86 634.49 446.65 627.78 454.52 620.54 462.44 612.96 470.43 605.43 478.53 597.86 486.72 590.41 495 583.36 503.4 576.58 511.92 570.15 520.51 564.27 529.22 558.74 538 553.55 546.8 548.89 555.64 544.47 564.44 540.23 573.12 536.39 581.71 532.59 590.07 528.75 598.08 525.15 605.82 521.39 613.05 517.41 619.66 513.52 625.79 509.32 631.14 504.79 635.59 497.79 640.77 481.82 644.83 472.83 643.63 466.66 641.88 460.12 639.19 453.23 635.65 446.31 631.84 439.05 627.44 431.5 622.61 423.93 617.97 416.07 613.23 407.94 608.57 399.82 604.57 391.64 601.01 383.43 597.98 375.23 595.85 367.01 594.3 358.8 593.3 350.6 593.18 342.42 593.5 334.29 594.15 326.18 595.45 318.13 596.86 310.16 598.26 302.24 599.97 294.43 601.42 286.76 602.5 279.17 603.56 271.76 604.06 264.58 603.93 257.51 603.55 250.72 602.43 244.23 600.57 237.91 598.33 231.95 595.33 226.39 591.6 221.04 587.48 216.12 582.68 211.66 577.26 207.42 571.52 203.64 565.24 200.36 558.5 197.25 551.53 194.6 544.19 192.4 536.55 190.28 528.77 188.55 520.76 187.19 512.6 185.78 504.37 184.65 496.03 183.76 487.64 182.7 479.23 181.79 470.8 181.02 462.4 179.97 453.99 179.01 445.62 178.14 437.32 176.95 429.03 175.85 420.81 174.89 412.68 173.67 404.56 172.69 396.71 171.98 389.15 171.19 381.57 170.78 374.26 170.79 367.22 170.89 360.15 171.5 353.31 172.64 346.72 174 340.07 175.94 333.62 178.46 327.38 181.25 321.04 184.63 314.86 188.55 308.83 192.72 302.68 197.4 296.63 202.54 290.67 207.87 284.54 213.6 278.46 219.67 272.43 225.83 266.2 232.28 259.99 238.94 253.79 245.63 247.39 252.49 241 259.49 234.65 266.44 228.13 273.5 221.67 280.65 215.31 287.72 208.87 294.88 202.59 302.11 196.55 309.26 190.55 316.49 184.89 323.81 179.63 331.06 174.57 338.41 170.03 345.87 166.08 353.28 162.48 360.82 159.57 368.49 157.41 376.14 155.69 383.94 154.77 391.9 154.68 399.85 155.02 407.96 156.17 416.24 158.11" stroke-dasharray="3 3" transform="rotate(35.8235294117647, 400, 400)" opacity="0.44"></path><path d="M417.41 168.84C425.32 171.04 433.15 173.84 440.87 177.14 448.59 180.55 456.2 184.33 463.66 188.4 471.09 192.39 478.34 196.55 485.37 200.82 492.33 204.86 499.03 208.95 505.41 213.03 511.68 216.81 517.59 220.56 523.07 224.28 530.83 229.38 543.62 239.15 548.56 243.96 555.67 253.41 562.47 269.04 564.14 275.05 566.4 281.32 572.8 295.4 577.39 303.22 581.32 308.55 585.7 314.18 590.51 320.09 595.95 326.02 601.69 332.22 607.59 338.67 613.78 345.13 619.83 351.83 625.54 358.76 631.02 365.69 635.79 372.85 639.63 380.22 642.72 387.59 644.54 395 645.04 402.44 644.6 409.9 642.84 417.39 639.86 424.93 636.07 432.49 631.25 440.11 625.58 447.79 619.45 455.52 612.74 463.33 605.66 471.22 598.52 479.18 591.26 487.23 584.02 495.35 577.06 503.56 570.27 511.85 563.72 520.18 557.63 528.58 551.82 536.98 546.3 545.36 541.24 553.71 536.42 561.97 531.78 570.04 527.52 577.97 523.35 585.62 519.21 592.87 515.31 599.83 511.33 606.26 507.22 612.06 501.13 619.68 487.77 629.92 480.35 632.23 475.28 632.82 469.87 632.45 464.12 631.11 458.34 629.29 452.22 626.63 445.78 623.22 439.31 619.61 432.52 615.48 425.43 610.96 418.33 606.64 410.94 602.22 403.29 597.84 395.64 594.07 387.91 590.66 380.15 587.7 372.39 585.54 364.61 583.87 356.83 582.69 349.07 582.3 341.32 582.3 333.62 582.61 325.96 583.53 318.35 584.57 310.85 585.64 303.4 587.04 296.07 588.25 288.91 589.17 281.83 590.15 274.95 590.66 268.3 590.66 261.78 590.48 255.53 589.68 249.61 588.23 243.84 586.49 238.43 584.07 233.41 580.98 228.58 577.58 224.16 573.53 220.18 568.9 216.38 563.97 213.02 558.52 210.11 552.61 207.34 546.47 204.98 539.94 203.03 533.08 201.12 526.08 199.56 518.81 198.32 511.35 197.02 503.8 195.96 496.1 195.11 488.31 194.07 480.49 193.18 472.6 192.4 464.69 191.35 456.77 190.38 448.85 189.49 440.96 188.3 433.07 187.2 425.22 186.22 417.42 185 409.63 184.01 402.08 183.26 394.76 182.43 387.44 181.96 380.34 181.87 373.47 181.85 366.57 182.31 359.87 183.27 353.38 184.41 346.82 186.1 340.44 188.33 334.22 190.82 327.91 193.85 321.74 197.41 315.68 201.21 309.5 205.52 303.4 210.27 297.37 215.23 291.2 220.58 285.06 226.28 278.96 232.11 272.7 238.23 266.45 244.6 260.23 251.01 253.85 257.62 247.5 264.39 241.21 271.15 234.79 278.04 228.46 285.03 222.26 291.97 216.03 299.01 209.99 306.11 204.2 313.16 198.49 320.29 193.13 327.49 188.18 334.64 183.44 341.87 179.22 349.18 175.57 356.46 172.26 363.84 169.61 371.32 167.67 378.77 166.15 386.34 165.37 394.03 165.37 401.7 165.78 409.5 166.93 417.4 168.83" stroke-dasharray="1 2" transform="rotate(38.38235294117647, 400, 400)" opacity="0.47"></path><path d="M417.2 179.56C424.7 181.7 432.09 184.4 439.33 187.57 446.56 190.86 453.64 194.51 460.53 198.45 467.38 202.33 474.03 206.4 480.41 210.59 486.74 214.59 492.78 218.66 498.49 222.74 504.09 226.56 509.33 230.37 514.17 234.16 521.01 239.41 532.26 249.51 536.65 254.46 543.31 264.06 550.66 279.48 552.87 285.26 555.74 291.22 563.34 304.49 568.39 311.82 572.51 316.8 577 322.06 581.83 327.6 587.18 333.14 592.73 338.95 598.36 345.02 604.21 351.09 609.89 357.42 615.21 363.99 620.3 370.55 624.73 377.36 628.29 384.41 631.2 391.45 632.95 398.57 633.52 405.75 633.25 412.95 631.79 420.21 629.2 427.53 625.89 434.88 621.6 442.31 616.5 449.8 610.94 457.33 604.8 464.95 598.23 472.63 591.54 480.37 584.66 488.18 577.7 496.05 570.92 503.96 564.23 511.91 557.68 519.87 551.49 527.84 545.51 535.78 539.76 543.63 534.4 551.42 529.25 559.06 524.28 566.45 519.66 573.69 515.14 580.59 510.69 587.06 506.49 593.24 502.27 598.88 497.97 603.89 491.68 610.39 478.32 618.73 471.09 620.35 463.62 620.29 447.22 615.36 438.26 610.81 432.18 607.4 425.81 603.54 419.16 599.34 412.5 595.33 405.56 591.21 398.38 587.12 391.19 583.56 383.93 580.31 376.63 577.42 369.34 575.25 362.03 573.5 354.72 572.16 347.43 571.53 340.17 571.24 332.95 571.24 325.78 571.8 318.68 572.49 311.69 573.23 304.76 574.3 297.97 575.25 291.35 575.98 284.82 576.81 278.5 577.28 272.42 577.32 263.62 576.97 247.78 573.21 240.85 569.69 234.56 565.2 224.19 553.04 220.13 545.55 217.66 540.2 215.56 534.45 213.82 528.35 212.1 522.11 210.68 515.58 209.54 508.82 208.32 501.97 207.3 494.93 206.48 487.76 205.46 480.54 204.56 473.22 203.77 465.84 202.72 458.44 201.74 450.99 200.83 443.54 199.65 436.08 198.54 428.62 197.56 421.17 196.34 413.73 195.34 406.48 194.57 399.42 193.71 392.36 193.18 385.47 193.02 378.78 192.89 372.05 193.21 365.49 193.99 359.09 194.93 352.64 196.38 346.33 198.34 340.14 200.51 333.88 203.22 327.71 206.41 321.63 209.85 315.46 213.76 309.34 218.11 303.28 222.66 297.09 227.61 290.94 232.92 284.83 238.36 278.58 244.11 272.35 250.12 266.17 256.21 259.87 262.51 253.61 268.99 247.43 275.49 241.18 282.13 235.03 288.89 229.05 295.63 223.06 302.47 217.29 309.39 211.8 316.27 206.41 323.24 201.37 330.26 196.75 337.25 192.35 344.32 188.44 351.44 185.1 358.54 182.08 365.71 179.69 372.95 177.97 380.18 176.63 387.49 175.99 394.86 176.08 402.23 176.54 409.68 177.7 417.19 179.56" stroke-dasharray="1 1" transform="rotate(40.94117647058823, 400, 400)" opacity="0.50"></path><path d="M415.62 190.29C422.71 192.35 429.64 194.95 436.39 198 443.13 201.15 449.68 204.66 456.02 208.46 462.32 212.22 468.38 216.17 474.18 220.27 479.92 224.2 485.35 228.22 490.46 232.28 497.83 238.03 510.57 249.16 515.87 254.54 520.66 259.56 528.3 269.49 531.3 274.52 534.16 279.42 539.42 289.85 542.18 295.47 545.62 301.22 554.24 313.87 559.65 320.81 563.89 325.5 568.43 330.47 573.22 335.69 578.43 340.9 583.76 346.37 589.11 352.11 594.61 357.83 599.91 363.82 604.85 370.05 609.56 376.27 613.65 382.75 616.96 389.48 619.68 396.21 621.37 403.03 621.98 409.93 621.86 416.84 620.67 423.83 618.45 430.9 615.58 437.99 611.8 445.16 607.25 452.4 602.26 459.67 596.67 467.01 590.64 474.4 584.44 481.83 577.99 489.31 571.39 496.82 564.88 504.34 558.38 511.86 551.94 519.35 545.76 526.82 539.72 534.2 533.85 541.46 528.31 548.62 522.92 555.58 517.7 562.26 512.79 568.76 507.98 574.9 503.26 580.61 498.78 586.01 494.31 590.89 489.82 595.16 483.27 600.62 469.75 607.25 462.62 608.27 455.33 607.84 439.59 602.77 431.09 598.42 425.34 595.23 419.34 591.64 413.08 587.74 406.83 584.03 400.32 580.21 393.59 576.39 386.86 573.05 380.07 569.95 373.25 567.16 366.44 565 359.61 563.18 352.8 561.71 346.01 560.87 339.26 560.33 332.57 560.04 325.92 560.26 319.36 560.62 312.92 561.04 306.54 561.79 300.31 562.46 294.26 562.97 285.42 563.8 269.11 563.76 261.75 562.61 254.91 560.75 243.16 554.14 238.3 549.39 233.99 543.85 227.25 530.25 224.76 522.35 223.19 516.84 221.88 511.03 220.82 504.95 219.66 498.79 218.67 492.41 217.86 485.86 216.84 479.26 215.94 472.52 215.14 465.67 214.08 458.81 213.08 451.86 212.17 444.86 210.98 437.85 209.88 430.79 208.89 423.72 207.69 416.64 206.68 409.7 205.9 402.92 205.02 396.12 204.45 389.47 204.21 382.95 204 376.42 204.19 370.01 204.81 363.72 205.56 357.39 206.78 351.16 208.47 345.03 210.36 338.83 212.73 332.71 215.57 326.65 218.63 320.51 222.15 314.42 226.09 308.38 230.22 302.23 234.75 296.12 239.62 290.04 244.65 283.87 249.99 277.73 255.6 271.64 261.3 265.47 267.24 259.37 273.36 253.37 279.53 247.33 285.86 241.43 292.32 235.7 298.79 230.01 305.37 224.55 312.03 219.37 318.68 214.32 325.41 209.63 332.19 205.35 338.97 201.29 345.8 197.72 352.68 194.68 359.55 191.95 366.47 189.81 373.43 188.3 380.38 187.14 387.38 186.63 394.42 186.8 401.45 187.31 408.52 188.47 415.61 190.28" stroke-dasharray="2 2" transform="rotate(43.5, 400, 400)" opacity="0.53"></path><path d="M412.81 201.01C419.46 203 425.93 205.49 432.19 208.4 438.45 211.42 444.5 214.78 450.31 218.42 456.09 222.05 461.62 225.87 466.88 229.84 472.09 233.7 477.01 237.65 481.61 241.65 488.25 247.39 499.76 258.63 504.61 264.1 509.07 269.26 516.48 279.46 519.59 284.58 522.7 289.57 528.8 300 532.08 305.54 536.02 311.15 545.48 323.34 551.14 329.98 555.44 334.44 559.97 339.16 564.66 344.11 569.69 349.05 574.78 354.23 579.83 359.67 584.97 365.09 589.89 370.76 594.45 376.67 598.8 382.58 602.57 388.75 605.62 395.15 608.17 401.56 609.78 408.07 610.43 414.67 610.44 421.27 609.49 427.96 607.61 434.72 605.14 441.5 601.85 448.36 597.82 455.28 593.38 462.21 588.35 469.21 582.86 476.23 577.18 483.27 571.2 490.34 565.02 497.4 558.86 504.44 552.63 511.46 546.4 518.4 540.34 525.29 534.36 532.07 528.48 538.67 522.85 545.16 517.35 551.41 511.97 557.37 506.85 563.13 501.83 568.52 496.9 573.47 489.84 580.21 476.04 590.37 469.13 593.57 462.28 595.49 447.98 595.27 440.44 593.22 435.38 591.37 430.11 588.97 424.63 586.06 419.16 583.09 413.48 579.77 407.59 576.17 401.7 572.74 395.6 569.22 389.31 565.67 383.02 562.54 376.69 559.6 370.35 556.91 364.02 554.77 357.69 552.91 351.39 551.33 345.12 550.32 338.89 549.55 332.74 549 323.63 548.95 306.11 549.71 297.81 550.18 289.83 550.72 275.2 550.53 268.66 549.54 257.38 545.24 244.09 533.77 240.91 528.21 238.08 522.04 233.77 507.73 232.15 499.73 231.03 494.23 230.06 488.49 229.24 482.55 228.23 476.56 227.31 470.4 226.48 464.09 225.42 457.77 224.41 451.32 223.48 444.78 222.31 438.24 221.21 431.61 220.23 424.91 219.04 418.21 218.04 411.61 217.25 405.11 216.36 398.61 215.76 392.2 215.46 385.89 215.17 379.57 215.26 373.33 215.73 367.18 216.31 361 217.32 354.89 218.75 348.85 220.36 342.76 222.42 336.72 224.92 330.73 227.61 324.68 230.73 318.66 234.25 312.69 237.96 306.64 242.05 300.63 246.49 294.66 251.07 288.62 255.97 282.62 261.14 276.7 266.41 270.73 271.93 264.84 277.64 259.08 283.43 253.3 289.38 247.69 295.47 242.26 301.6 236.9 307.85 231.78 314.18 226.96 320.53 222.27 326.96 217.94 333.44 214.01 339.93 210.3 346.47 207.05 353.04 204.32 359.62 201.87 366.23 199.97 372.87 198.67 379.5 197.68 386.16 197.3 392.82 197.55 399.48 198.1 406.15 199.25 412.8 201.01" stroke-dasharray="2 3" transform="rotate(46.05882352941177, 400, 400)" opacity="0.55"></path><path d="M408.99 211.74C415.19 213.65 421.2 216.02 427 218.79 432.78 221.67 438.35 224.87 443.68 228.34 454.27 235.25 463.84 242.87 472.24 250.86 480.5 258.22 487.58 265.74 493.46 273.32 499.35 280.12 504.3 287.07 508.5 294.22 513.26 300.77 517.85 307.76 522.59 315.28 528.65 322.46 535.38 330.38 542.84 339.07 551.77 347.62 561.17 357.07 570.5 367.4 575.29 372.55 579.83 377.94 584.03 383.56 588.02 389.17 591.48 395.02 594.29 401.1 596.66 407.19 598.18 413.37 598.86 419.63 598.99 425.9 598.25 432.25 596.68 438.67 592 451.53 584.49 464.65 574.88 477.83 564.43 490.99 552.9 504.1 540.96 516.84 529.43 529.3 518.03 541.07 506.99 551.7 496.76 561.57 486.8 569.82 477.05 576.02 467.87 580.96 458.55 583.54 448.95 583.58 439.59 582.45 429.68 579.08 419.2 573.74 413.97 570.99 408.58 567.93 403.02 564.62 397.47 561.48 391.75 558.23 385.88 554.94 380 552.02 374.12 549.25 368.25 546.67 362.39 544.56 356.55 542.68 350.77 541.03 339.26 539.2 328.05 538.07 317.37 537.38 306.91 537.93 297.13 538.17 288.28 537.71 279.76 537.51 272.28 535.99 266 533.01 260.04 529.68 255.24 524.7 251.62 518.17 248.03 511.19 245.35 502.8 243.51 493.23 241.17 483.4 239.29 472.6 237.81 461.07 236.73 455.28 235.72 449.34 234.79 443.26 233.62 437.19 232.54 430.99 231.56 424.69 230.4 418.39 229.41 412.13 228.62 405.94 227.74 399.75 227.11 393.61 226.76 387.54 226.11 375.36 226.9 363.37 229.19 351.61 232.05 339.69 236.59 327.89 242.65 316.27 249.39 304.45 257.54 292.78 266.82 281.42 276.57 269.98 287.22 259 298.51 248.78 310 238.87 321.96 230.07 334.18 222.74 346.46 216.24 358.94 211.59 371.46 209.08 377.73 208.26 384 207.99 390.26 208.31 396.53 208.89 402.77 210.03 408.98 211.73" stroke-dasharray="3 0" transform="rotate(48.61764705882353, 400, 400)" opacity="0.58"></path><path d="M404.45 222.46C415.96 226.28 426.67 231.67 436.47 238.23 446.21 244.83 454.98 252.15 462.71 259.9 470.37 267.15 477.02 274.62 482.69 282.18 488.49 289.08 493.57 296.14 498.12 303.37 503.28 310.05 508.39 317.09 513.69 324.56 520.15 331.7 527.17 339.45 534.72 347.87 543.44 356.13 552.41 365.18 561.13 375.03 569.94 384.82 577.48 395.47 582.95 406.98 586.91 418.49 587.78 430.35 585.66 442.4 581.73 454.47 575.2 466.71 566.66 478.9 557.26 491.04 546.7 503 535.53 514.47 524.54 525.63 513.48 536.01 502.61 545.22 492.34 553.7 482.27 560.63 472.4 565.65 463.03 569.59 453.61 571.42 444.07 571.02 434.76 569.69 425.09 566.42 415.03 561.45 405.01 556.44 394.5 550.55 383.56 544.22 372.61 539.15 361.75 534.61 351.17 530.8 340.65 528.67 330.5 527.11 320.92 525.93 311.51 525.91 302.8 525.66 294.99 524.89 287.42 524.47 280.83 522.99 275.33 520.3 270.03 517.41 265.75 513.1 262.52 507.41 259.2 501.39 256.68 494.05 254.87 485.56 252.56 476.85 250.65 467.15 249.11 456.66 246.75 446.09 244.64 434.84 242.9 423.06 240.49 411.27 238.85 399.52 238.12 387.93 237.35 376.3 237.89 364.75 239.79 353.36 242.14 341.87 246.03 330.45 251.33 319.22 257.22 307.86 264.44 296.69 272.77 285.87 281.55 275.08 291.25 264.8 301.6 255.31 312.19 246.19 323.28 238.16 334.65 231.56 346.12 225.74 357.8 221.65 369.49 219.54 381.22 218.45 392.93 219.4 404.44 222.46" stroke-dasharray="1 2" transform="rotate(51.1764705882353, 400, 400)" opacity="0.61"></path><path d="M399.57 233.19C410.19 236.81 420.05 241.89 429.07 248.07 438.05 254.33 446.17 261.33 453.38 268.78 460.58 275.85 466.96 283.19 472.56 290.68 478.35 297.61 483.63 304.71 488.55 311.96 494.07 318.73 499.62 325.81 505.36 333.23 512.09 340.34 519.24 347.97 526.75 356.14 535.15 364.16 543.62 372.85 551.71 382.23 559.79 391.55 566.64 401.64 571.62 412.47 575.3 423.3 576.25 434.4 574.55 445.6 571.3 456.8 565.69 468.08 558.2 479.21 549.86 490.25 540.3 501 530.02 511.18 519.73 521.04 509.2 530.06 498.69 537.91 488.6 545.1 478.62 550.82 468.8 554.79 459.39 557.88 449.98 559.09 440.55 558.36 431.33 556.91 421.9 553.79 412.25 549.2 402.65 544.65 392.73 539.29 382.54 533.49 372.34 528.78 362.36 524.43 352.74 520.63 343.16 518.27 334.01 516.36 325.46 514.74 317.04 514.19 309.31 513.48 302.43 512.36 292.81 510.9 278.41 503.07 273.54 496.14 270.45 490.9 268.03 484.45 266.23 476.91 263.92 469.2 261.98 460.51 260.38 450.98 258.04 441.4 255.95 431.07 254.23 420.12 251.91 409.16 250.3 398.13 249.53 387.13 248.68 376.13 249.01 365.12 250.54 354.22 252.45 343.26 255.72 332.35 260.29 321.63 265.37 310.87 271.69 300.31 279.07 290.15 286.86 280.1 295.55 270.59 304.92 261.89 314.53 253.59 324.67 246.35 335.11 240.48 345.67 235.33 356.45 231.78 367.26 230.05 378.12 229.22 388.94 230.24 399.57 233.19" stroke-dasharray="4 0" transform="rotate(53.73529411764706, 400, 400)" opacity="0.64"></path><path d="M394.71 243.91C404.46 247.33 413.53 252.09 421.86 257.88 430.17 263.78 437.75 270.4 444.56 277.51 451.42 284.34 457.63 291.49 463.24 298.81 469.09 305.69 474.58 312.76 479.83 319.97 485.65 326.78 491.53 333.85 497.55 341.2 504.41 348.26 511.56 355.75 518.89 363.69 526.89 371.47 534.8 379.82 542.24 388.74 549.59 397.61 555.78 407.12 560.28 417.24 563.68 427.37 564.69 437.66 563.37 447.97 560.73 458.26 555.97 468.51 549.48 478.54 542.17 488.44 533.65 497.97 524.33 506.87 514.87 515.44 505.02 523.17 495.06 529.75 485.36 535.76 475.66 540.41 466.07 543.49 456.78 545.85 447.52 546.57 438.3 545.61 429.26 544.12 420.12 541.19 410.9 536.99 401.72 532.89 392.37 528.05 382.89 522.77 373.42 518.41 364.27 514.27 355.54 510.53 346.84 508 338.62 505.8 331.01 503.82 323.48 502.8 316.63 501.65 310.57 500.19 302.03 498.33 289.14 490.8 284.66 484.55 281.73 479.92 279.37 474.2 277.55 467.48 275.24 460.65 273.27 452.86 271.62 444.24 269.31 435.57 267.25 426.14 265.57 416.03 263.34 405.92 261.78 395.64 260.98 385.33 260.09 375.01 260.24 364.64 261.46 354.34 262.96 344.02 265.69 333.74 269.58 323.66 273.89 313.6 279.35 303.77 285.79 294.37 292.6 285.12 300.29 276.45 308.63 268.58 317.23 261.12 326.35 254.68 335.81 249.52 345.4 245.02 355.23 241.99 365.11 240.61 375.04 240.01 384.96 241.09 394.71 243.91" stroke-dasharray="1 1" transform="rotate(56.294117647058826, 400, 400)" opacity="0.66"></path><path d="M390.28 254.64C399.18 257.84 407.52 262.27 415.23 267.65 422.95 273.16 430.06 279.38 436.58 286.1 443.16 292.62 449.26 299.49 454.91 306.58 460.81 313.32 466.48 320.27 471.98 327.37 477.99 334.13 484.06 341.13 490.24 348.35 497.06 355.33 504.06 362.65 511.1 370.33 518.62 377.87 525.94 385.87 532.71 394.32 539.35 402.72 544.91 411.64 548.95 421.04 552.07 430.44 553.1 439.89 552.11 449.26 550.01 458.61 546.04 467.82 540.48 476.72 534.18 485.49 526.7 493.82 518.38 501.47 509.84 508.84 500.81 515.35 491.56 520.79 482.42 525.75 473.19 529.47 464.01 531.79 455.03 533.56 446.07 533.9 437.18 532.8 428.43 531.33 419.66 528.63 410.89 524.83 402.17 521.16 393.39 516.83 384.61 512.04 375.82 508.04 367.44 504.14 359.54 500.49 351.64 497.86 344.26 495.43 337.49 493.17 327.71 490.97 311.67 486.14 305.52 482.67 300 478.64 291.83 466.14 288.82 457.56 286.51 451.46 284.51 444.48 282.82 436.69 280.55 428.87 278.54 420.29 276.9 411.03 274.78 401.76 273.29 392.28 272.49 382.71 271.57 373.15 271.58 363.51 272.54 353.91 273.69 344.32 275.93 334.79 279.2 325.46 282.81 316.19 287.45 307.18 293 298.61 298.87 290.24 305.56 282.44 312.9 275.43 320.46 268.81 328.56 263.16 337.01 258.7 345.59 254.82 354.43 252.28 363.37 251.22 372.35 250.83 381.37 251.96 390.28 254.64" stroke-dasharray="0 3" transform="rotate(58.852941176470594, 400, 400)" opacity="0.69"></path><path d="M386.61 265.36C394.7 268.34 402.35 272.43 409.5 277.39 416.67 282.49 423.38 288.28 429.64 294.55 435.98 300.71 441.97 307.24 447.65 314 453.56 320.52 459.32 327.26 464.98 334.15 471.05 340.78 477.17 347.62 483.34 354.64 490 361.47 496.72 368.58 503.37 375.95 510.34 383.21 517.02 390.82 523.12 398.77 529.06 406.68 534.01 414.98 537.61 423.63 540.45 432.28 541.49 440.88 540.78 449.3 539.16 457.7 535.89 465.86 531.2 473.65 525.86 481.32 519.4 488.49 512.1 494.98 504.54 501.23 496.42 506.65 487.99 511.07 479.58 515.11 470.99 518.05 462.38 519.75 453.89 521.05 445.38 521.12 436.95 519.96 428.62 518.56 420.29 516.11 412.04 512.71 403.83 509.47 395.64 505.62 387.53 501.32 379.42 497.66 371.77 494.01 364.61 490.51 357.46 487.83 350.83 485.26 344.78 482.79 336.02 480.08 321.65 474.39 316.05 470.75 310.93 466.75 303.05 455.16 300.01 447.39 297.71 441.91 295.69 435.64 293.98 428.62 291.76 421.58 289.82 413.82 288.24 405.4 286.24 396.98 284.82 388.32 284.04 379.55 283.12 370.8 283.02 361.96 283.77 353.16 284.63 344.39 286.44 335.68 289.17 327.19 292.14 318.79 296.04 310.67 300.77 303 305.74 295.53 311.49 288.63 317.84 282.49 324.39 276.71 331.47 271.83 338.93 268.03 346.49 264.74 354.35 262.65 362.35 261.89 370.39 261.69 378.52 262.83 386.61 265.36" stroke-dasharray="3 3" transform="rotate(61.411764705882355, 400, 400)" opacity="0.72"></path><path d="M384 276.09C391.31 278.84 398.3 282.57 404.93 287.1 411.58 291.77 417.91 297.09 423.92 302.88 430.01 308.62 435.86 314.73 441.5 321.1 447.35 327.3 453.1 333.74 458.77 340.32 464.77 346.72 470.79 353.31 476.79 360.05 483.15 366.65 489.48 373.46 495.64 380.46 502.01 387.38 508.03 394.56 513.47 401.97 518.73 409.35 523.1 417.01 526.28 424.89 528.85 432.77 529.86 440.49 529.39 447.97 528.18 455.42 525.54 462.57 521.65 469.29 517.2 475.91 511.72 482.01 505.44 487.44 498.87 492.67 491.72 497.12 484.2 500.67 476.63 503.93 468.82 506.22 460.92 507.44 453.07 508.37 445.17 508.26 437.32 507.12 429.54 505.83 421.77 503.65 414.1 500.65 406.46 497.82 398.88 494.42 391.44 490.59 384 487.29 377.03 483.91 370.56 480.58 364.08 477.91 358.11 475.27 352.69 472.66 344.81 469.57 331.8 463.15 326.65 459.34 321.83 455.31 314.17 444.38 311.11 437.29 308.82 432.33 306.81 426.68 305.09 420.36 302.95 414.03 301.08 407.05 299.57 399.47 297.7 391.88 296.38 384.06 295.63 376.14 294.74 368.24 294.57 360.26 295.13 352.32 295.76 344.43 297.21 336.62 299.46 329.04 301.88 321.56 305.12 314.37 309.09 307.62 313.26 301.08 318.12 295.08 323.56 289.79 329.15 284.83 335.25 280.69 341.74 277.52 348.32 274.79 355.22 273.12 362.31 272.61 369.43 272.58 376.69 273.72 384 276.09" stroke-dasharray="1 3" transform="rotate(63.97058823529412, 400, 400)" opacity="0.75"></path><path d="M382.66 286.81C389.21 289.32 395.57 292.7 401.69 296.79 407.82 301.01 413.76 305.84 419.48 311.11 425.27 316.37 430.93 322.01 436.43 327.91 442.1 333.7 447.72 339.74 453.26 345.93 459.04 351.99 464.81 358.23 470.51 364.59 476.45 370.85 482.29 377.28 487.9 383.84 493.62 390.34 498.97 397.03 503.75 403.85 508.36 410.66 512.17 417.63 514.95 424.72 517.24 431.81 518.22 438.67 517.93 445.22 517.07 451.75 514.98 457.93 511.82 463.66 508.19 469.3 503.63 474.42 498.33 478.9 492.75 483.23 486.59 486.85 480.04 489.67 473.39 492.28 466.45 494.04 459.37 494.9 452.3 495.57 445.13 495.37 437.97 494.29 430.85 493.14 423.74 491.24 416.72 488.65 409.72 486.2 402.8 483.25 396.03 479.87 389.26 476.91 382.94 473.82 377.11 470.7 368.57 466.78 353.87 459.45 347.74 455.82 341.99 452.48 332.62 444.44 328.88 439.44 325.16 434.03 318.85 420.45 316.16 412.24 314.11 406.57 312.33 400.33 310.91 393.56 309.18 386.79 307.96 379.83 307.25 372.78 306.41 365.76 306.21 358.67 306.63 351.65 307.08 344.68 308.24 337.81 310.08 331.18 312.03 324.64 314.69 318.4 317.99 312.59 321.43 306.97 325.49 301.86 330.09 297.4 334.8 293.22 340 289.77 345.58 287.2 351.23 284.97 357.21 283.68 363.42 283.4 369.66 283.5 376.1 284.62 382.66 286.81" stroke-dasharray="2 2" transform="rotate(66.52941176470588, 400, 400)" opacity="0.78"></path><path d="M382.68 297.54C394.34 302.26 405.64 309.84 416.32 319.25 427.25 328.72 438 339.54 448.34 351 459.35 362.15 470.19 374 480.11 386.11 490.19 398.08 498.49 410.57 503.61 423.15 507.22 435.72 506.38 447.14 501.72 456.83 495.58 466.27 486.39 473.59 475.37 478.18 463.9 482.21 451.32 483.37 438.58 481.51 425.87 479.56 413.11 475.3 400.93 469.14 388.75 464.28 378.19 458.81 369.42 453.17 360.5 448.99 353.18 444.11 347.55 438.38 341.41 433.31 336.52 426.66 332.93 418.35 328.31 410.12 324.62 399.95 322.25 388.02 318.89 376.09 317.55 363.6 318.25 351.39 318.9 339.37 322.05 327.93 327.44 318 333.16 308.7 341.03 301.43 350.48 297.05 360.11 293.81 371.02 293.81 382.68 297.54" stroke-dasharray="2 0" transform="rotate(69.08823529411764, 400, 400)" opacity="0.80"></path><path d="M384.07 308.26C394.31 312.43 404.5 319.06 414.33 327.31 424.35 335.69 434.31 345.35 443.88 355.62 453.87 365.74 463.56 376.47 472.23 387.37 480.91 398.18 487.96 409.3 492.28 420.25 495.46 431.21 494.99 440.91 491.36 448.94 486.6 456.8 479.19 462.72 470.08 466.31 460.53 469.55 449.82 470.41 438.79 468.8 427.75 467.21 416.53 463.67 405.76 458.42 394.98 454.15 385.57 449.12 377.69 443.78 369.66 439.53 362.94 434.6 357.63 428.96 351.87 423.89 347.16 417.57 343.61 410 339.25 402.52 335.79 393.53 333.58 383.16 330.59 372.8 329.4 362.11 329.96 351.77 330.4 341.6 332.95 332.06 337.39 323.92 342 316.29 348.49 310.46 356.45 307.11 364.5 304.63 373.84 304.88 384.07 308.26" stroke-dasharray="3 2" transform="rotate(71.6470588235294, 400, 400)" opacity="0.83"></path><path d="M386.73 318.99C395.55 322.59 404.54 328.26 413.34 335.32 422.27 342.54 431.19 350.92 439.73 359.87 448.5 368.76 456.88 378.21 464.25 387.73 471.53 397.22 477.38 406.87 480.94 416.21 483.69 425.54 483.49 433.64 480.75 440.19 477.19 446.64 471.4 451.39 464.09 454.2 456.41 456.82 447.6 457.5 438.34 456.18 429.04 454.95 419.46 452.08 410.13 447.69 400.8 444.02 392.54 439.53 385.51 434.61 378.36 430.48 372.26 425.69 367.3 420.31 361.98 415.37 357.54 409.47 354.12 402.66 350.1 395.95 346.92 388.09 344.92 379.26 342.31 370.43 341.29 361.49 341.76 352.99 342.07 344.61 344.13 336.89 347.76 330.42 351.46 324.35 356.75 319.82 363.37 317.37 370.02 315.54 377.9 315.98 386.73 318.99" stroke-dasharray="3 1" transform="rotate(74.20588235294117, 400, 400)" opacity="0.86"></path><path d="M390.42 329.71C397.85 332.73 405.52 337.43 413.11 343.29 420.78 349.3 428.44 356.32 435.73 363.83 443.13 371.36 450.1 379.36 456.14 387.39 462.05 395.42 466.75 403.52 469.6 411.24 471.9 422.25 465.18 437.87 457.36 441.95 451.42 444.08 444.45 444.66 436.97 443.66 429.44 442.77 421.54 440.53 413.7 436.97 405.86 433.89 398.8 430.01 392.66 425.65 386.44 421.82 381 417.36 376.47 412.43 371.68 407.8 367.62 402.45 364.45 396.47 360.85 390.57 358.02 383.87 356.25 376.55 354.05 369.22 353.21 361.97 353.61 355.2 354.7 345.51 363.56 331.21 371.09 327.83 376.49 326.57 383 327.11 390.42 329.71" stroke-dasharray="1 2" transform="rotate(76.76470588235294, 400, 400)" opacity="0.89"></path><path d="M394.88 340.44C406.88 345.52 420.02 355.65 431.74 367.62 443.57 379.74 453.59 393.37 458.27 405.63 461.57 417.88 457.98 426.25 449.86 429.73 440.97 433.14 428.8 432.04 416.19 426.24 403.57 421.67 392.82 414.1 385.07 405.3 376.64 397.28 370.27 386.86 367.59 375.16 363.79 363.46 364.66 352.71 369.43 345.37 374.04 338.72 382.87 336.43 394.88 340.44" stroke-dasharray="2 1" transform="rotate(79.32352941176471, 400, 400)" opacity="0.92"></path><path d="M399.74 351.16C408.85 354.96 418.81 362.45 427.6 371.35 436.35 380.39 443.61 390.59 446.93 399.7 448.35 411.9 431.22 420.01 417.39 415.52 407.91 412.01 399.41 405.96 393.03 398.89 386.28 392.24 381.11 383.96 378.92 375.19 376.45 362.6 387.3 348.65 399.74 351.16" stroke-dasharray="3 2" transform="rotate(81.88235294117646, 400, 400)" opacity="0.94"></path><path d="M404.62 361.89C416.9 367.15 431.14 381.74 435.6 393.79 438.74 405.83 429.87 410.41 417.23 404.79 404.57 400.36 393.09 388.35 390.26 376.63 386.24 364.89 392.33 357.74 404.62 361.89" stroke-dasharray="3 3" transform="rotate(84.44117647058823, 400, 400)" opacity="0.97"></path></g></svg>